<svg xmlns="http://www.w3.org/2000/svg"  viewBox="0 0 48 48" width="48px" height="48px"><rect width="14" height="7" x="17" y="8" fill="#999"/><path fill="#666" d="M43,8H31v7h14v-5C45,8.895,44.105,8,43,8z"/><path fill="#ccc" d="M5,8c-1.105,0-2,0.895-2,2v5h14V8H5z"/><linearGradient id="u8UbA7GmcDgkSbOtELVhra" x1="3.594" x2="44.679" y1="13.129" y2="39.145" gradientUnits="userSpaceOnUse"><stop offset="0" stop-color="#4c4c4c"/><stop offset="1" stop-color="#343434"/></linearGradient><path fill="url(#u8UbA7GmcDgkSbOtELVhra)" d="M45,13H3v25c0,1.105,0.895,2,2,2h38c1.105,0,2-0.895,2-2V13z"/><path d="M10.597,18.314l-2.319,2.319c-0.514,0.514-0.514,1.347,0,1.861l3.978,3.978l-4.033,4.033	c-0.514,0.514-0.514,1.347,0,1.861l2.319,2.319c0.514,0.514,1.347,0.514,1.861,0l7.282-7.283c0.514-0.514,0.514-1.347,0-1.861	l-7.228-7.228C11.944,17.8,11.111,17.8,10.597,18.314z" opacity=".05"/><path d="M10.889,18.729l-2.197,2.197c-0.352,0.352-0.352,0.924,0,1.276l4.271,4.271l-4.325,4.325	c-0.352,0.352-0.352,0.924,0,1.276l2.197,2.197c0.353,0.352,0.924,0.352,1.276,0l7.16-7.161c0.352-0.352,0.352-0.924,0-1.276	l-7.106-7.106C11.813,18.376,11.242,18.376,10.889,18.729z" opacity=".07"/><linearGradient id="u8UbA7GmcDgkSbOtELVhrb" x1="10.135" x2="15.002" y1="32.774" y2="27.907" gradientUnits="userSpaceOnUse"><stop offset="0" stop-color="#a0a0a0"/><stop offset=".569" stop-color="#9e9e9e"/><stop offset=".774" stop-color="#979797"/><stop offset=".92" stop-color="#8c8c8c"/><stop offset="1" stop-color="#818181"/></linearGradient><path fill="url(#u8UbA7GmcDgkSbOtELVhrb)" d="M9.053,31.09l6.983-6.983c0.191-0.191,0.501-0.191,0.692,0l2.075,2.075	c0.191,0.191,0.191,0.501,0,0.692l-6.983,6.983c-0.191,0.191-0.501,0.191-0.692,0l-2.075-2.075	C8.862,31.591,8.862,31.281,9.053,31.09z"/><path fill="#d0d0d0" d="M11.873,19.143l6.983,6.983c0.191,0.191,0.191,0.501,0,0.692l-2.075,2.075	c-0.191,0.191-0.501,0.191-0.692,0L9.107,21.91c-0.191-0.191-0.191-0.501,0-0.692l2.075-2.075	C11.373,18.952,11.682,18.952,11.873,19.143z"/><path d="M22,32v4c0,0.552,0.448,1,1,1h17c0.552,0,1-0.448,1-1v-4c0-0.552-0.448-1-1-1H23	C22.448,31,22,31.448,22,32z" opacity=".05"/><path d="M39.909,36.5H23.091c-0.326,0-0.591-0.265-0.591-0.591v-3.818c0-0.326,0.265-0.591,0.591-0.591	h16.818c0.326,0,0.591,0.265,0.591,0.591v3.818C40.5,36.235,40.235,36.5,39.909,36.5z" opacity=".07"/><path fill="#d4d4d4" d="M23.5,32h16c0.276,0,0.5,0.224,0.5,0.5v3c0,0.276-0.224,0.5-0.5,0.5h-16c-0.276,0-0.5-0.224-0.5-0.5	v-3C23,32.224,23.224,32,23.5,32z"/></svg>