<svg xmlns="http://www.w3.org/2000/svg" xmlns:xlink="http://www.w3.org/1999/xlink" viewBox="0 0 2386.28 2300">
  <defs>
    <style>
      .cls-1, .cls-14 {
        isolation: isolate;
      }

      .cls-2 {
        fill: url(#linear-gradient);
      }

      .cls-3 {
        fill: url(#radial-gradient);
      }

      .cls-4 {
        fill: #ed1c24;
      }

      .cls-5 {
        fill: #f1e10a;
      }

      .cls-5, .cls-6 {
        opacity: 0.6;
      }

      .cls-6 {
        fill: #f3e235;
      }

      .cls-7 {
        fill: #eac076;
      }

      .cls-7, .cls-8 {
        mix-blend-mode: screen;
      }

      .cls-8 {
        fill: #e7f6fd;
      }

      .cls-9 {
        fill: #3f3d56;
      }

      .cls-10 {
        fill: #e6e6e6;
      }

      .cls-11 {
        fill: #ccc;
      }

      .cls-12, .cls-13 {
        fill: #ff6584;
      }

      .cls-13 {
        opacity: 0.27;
        mix-blend-mode: multiply;
      }

      .cls-14 {
        fill: #f0f0f0;
        opacity: 0.3;
      }

      .cls-15 {
        fill: #f2f2f2;
      }

      .rocket-flame-right {
        animation: burst 0.8s infinite;
        transform-box: fill-box;
      }
      .rocket-flame {
        animation: burst 0.7s infinite;
        transform-box: fill-box;
      }
      @keyframes burst {
        20% {
          transform: scale(0.9);
        }
        40% {
          transform: scale(0.8);
        }
        60% {
          transform: scale(1);
        }
        80% {
          transform: scale(0.9);
        }
        100% {
          transform: scale(1);
        }
      }
      .jupter-wheel {
          animation: globe-glob 12s linear infinite;
          transform-origin: center;
          transform-box: fill-box;
      }
      .globe-wheel {
          animation: jupter-glob 8s linear infinite;
          transform-origin: center;
          transform-box: fill-box;
      }
      @keyframes jupter-glob {
          from {
              transform: rotateZ(360deg);
          }
          to {
              transform: rotateZ(0deg);
          }
      }
      @keyframes globe-glob {
          from {
              transform: rotateZ(-360deg);
          }
          to {
              transform: rotateZ(0deg);
          }
      }
      .jupter-cabins {
          animation: cabins 5s linear infinite;
          transform-origin: top;
      }
      @keyframes cabins {
          0,
          100% {
              transform: rotate(2deg);
          }
          50% {
              transform: rotate(-8deg);
          }
      }
      .jumprocket {
          animation: jumpRocket 3.5s linear infinite;
          transform-origin: bottom;
      }
      @keyframes jumpRocket {
        0% {
            transform: translateY(20px);
        }
        50% {
            transform: translateY(-5px);
        }
        100% {
            transform: translateY(20px);
        }
      }
      .jumprocket2 {
          animation: jumpRocket 2.5s linear infinite;
          transform-origin: bottom;
      }
      @keyframes jumpRocket2 {
        0% {
            transform: translateY(20px);
        }
        50% {
            transform: translateY(-5px);
        }
        100% {
            transform: translateY(20px);
        }
      }
      
      .blink-dot {
          animation: blinkDot 3s linear infinite;
          transform-origin: center;
          transform-box: fill-box;
      }
      @keyframes blinkDot {
          0% {
              transform: scale(0, 0);
              opacity: 0;
          }
          50% {
              transform: scale(1.5);
              opacity: 1;
          }
          100% {
              transform: scale(0, 0);
              opacity: 0;
          }
      }
      .blink-dot2 {
          animation: blinkDot 3.5s linear infinite;
          transform-origin: center;
          transform-box: fill-box;
      }
      @keyframes blinkDot2 {
          0% {
              transform: scale(0, 0);
              opacity: 0;
          }
          50% {
              transform: scale(1.1);
              opacity: 1;
          }
          100% {
              transform: scale(0, 0);
              opacity: 0;
          }
      }
      .blink-dot3 {
          animation: blinkDot 4.5s linear infinite;
          transform-origin: center;
          transform-box: fill-box;
      }
      @keyframes blinkDot3 {
          0% {
              transform: scale(0, 0);
              opacity: 0;
          }
          50% {
              transform: scale(1.5);
              opacity: 1;
          }
          100% {
              transform: scale(0, 0);
              opacity: 0;
          }
      }
      .blink-dot4 {
          animation: blinkDot 3.5s linear infinite;
          transform-origin: center;
          transform-box: fill-box;
      }
      @keyframes blinkDot4 {
          0% {
              transform: scale(0, 0);
              opacity: 0;
          }
          50% {
              transform: scale(1.6);
              opacity: 1;
          }
          100% {
              transform: scale(0, 0);
              opacity: 0;
          }
      }

      .jumglobe {
          animation: jumglobe 2.5s linear infinite;
          transform-origin: bottom;
      }
      @keyframes jumglobe {
        0% {
            transform: translateY(20px);
        }
        50% {
            transform: translateY(-5px);
        }
        100% {
            transform: translateY(20px);
        }
      }
      .jumglobe2 {
          animation: jumglobe2 3s linear infinite;
          transform-origin: bottom;
      }
      @keyframes jumglobe2 {
        0% {
            transform: translateY(20px);
        }
        50% {
            transform: translateY(-5px);
        }
        100% {
            transform: translateY(20px);
        }
      }
      .colorfe {
        fill: #ff6584;
      }
    </style>
    <linearGradient id="linear-gradient" x1="50%" y1="0%" x2="50%" y2="100%" gradientTransform="rotate(-45)">
        <stop offset="30%" stop-color="#4f46e5">
          <animate attributeName="stop-color" values="#4f46e5; #42389d; #000; #4f46e5;" dur="8s" repeatCount="indefinite"></animate>
        </stop>
        <stop offset="100%" stop-color="#000">
          <animate attributeName="stop-color" values="#000; #4f46e5; #42389d; #000;" dur="8s" repeatCount="indefinite"></animate>
        </stop>
    </linearGradient>
    <radialGradient id="radial-gradient" cx="395.66" cy="773.29" r="263.81" gradientTransform="translate(1445.9 2573.74) rotate(-130.54)" gradientUnits="userSpaceOnUse">
      <stop offset="0" stop-color="#fff"/>
      <stop offset="0.1" stop-color="#ffa222"/>
      <stop offset="0.48" stop-color="#ff9063" stop-opacity="0.53"/>
      <stop offset="0.82" stop-color="#ff8197" stop-opacity="0.15"/>
      <stop offset="0.96" stop-color="#ff7bac" stop-opacity="0"/>
    </radialGradient>
  </defs>
  <g class="cls-1">
    <g id="Layer_1" data-name="Layer 1">
      <circle class="cls-2" cx="1236.28" cy="1150" r="1150"/>
      <g class="jumprocket">
        <path class="cls-3" d="M1605.78,1571.16c-110.59,94.72-123.44,261.11-28.75,371.67s261.13,123.41,371.69,28.7,123.41-261.09,28.73-371.66S1716.32,1476.46,1605.78,1571.16Z"/>
        <g>
          <g class="rocket-flame-right">
            <path class="cls-4" d="M1704,1954.22c-7.51-15.64-21-47.75-21-47.75s12.66,25.75,18.88,38.69c-5.36-13.49-10.86-27-16-40.43-3.42-9-6.63-18.25-10.05-27.32-2.66-7.25-5.44-14.53-8.23-21.73-.79-2.06-2.33-6.26-2.34-6.26s10.21,23.41,15.68,34.94c-1.13-3.89-2.42-7.76-3.65-11.59-1.35-4.28-2.61-8.63-3.79-13-1.3-4.67-2.61-9.38-4-14-1.27-4.11-3.37-12.44-3.35-12.44s6.36,18.65,9.89,27.85c-1.92-9.38-4.29-18.67-6.6-28-.82-2.85-1.69-5.68-2.51-8.53-3.1-10.69-5.83-21.57-9.43-32.07a141.15,141.15,0,0,0-15.51-32.11c-14.23-21.33-45-17.15-57.39,4.22-4.67,8.06-3.8,17.94-.37,26.12,3.91,9.35,9.63,17.92,15.68,26.19,7.2,9.9,15,19.56,22.35,29.43,4,5.28,7.91,10.52,11.93,15.73-3.88-6.59-12.16-19.54-12.13-19.54s4.86,6.33,7.07,9.58c2.31,3.43,4.74,6.77,7.2,10.11-2.42-4.4-7-13.4-7-13.42s23.24,35.68,35.62,53c.62.78,1.23,1.57,1.85,2.32-3.78-6.59-11.13-19.73-11.13-19.7s9.65,13.27,14.16,20c5.78,8.64,11.53,17.27,17,26.1,7.05,11.36,14,22.87,20.87,34.31,1.65,2.67,3.47,5.35,5,8.11.81,1.48,1.65,3,2.5,4.49C1711.6,1969.74,1707.73,1962,1704,1954.22Z"/>
            <path class="cls-5" d="M1604.64,1753.1c-3.94,2.06-8.23,3.86-11.18,7.34a29,29,0,0,0-6.24,11.42,36.22,36.22,0,0,0,.29,16.15,56.3,56.3,0,0,0,2.65,8.1c.85,2,2.1,4.05,2.86,6.12,0,.15-.15,0-.15-.06-1.06-2.33-2.58-4.51-3.65-6.83a38.46,38.46,0,0,1-2.79-7.93,40.3,40.3,0,0,1-.64-16.3c1.46-9.22,10.14-15.43,18.74-18.23C1604.62,1752.85,1604.77,1753.05,1604.64,1753.1Z"/>
            <path class="cls-5" d="M1632.38,1753.58a47.33,47.33,0,0,1,4.55,4.38,86.36,86.36,0,0,1,14.38,22.19c.06.18,0,.15-.1,0a91,91,0,0,0-14.44-20.88,44.84,44.84,0,0,0-8.83-7.39,52.31,52.31,0,0,0-5.17-2.74A25.41,25.41,0,0,1,1632.38,1753.58Z"/>
            <path class="cls-5" d="M1602.53,1828.64c-2.15-2.57-4.35-5.19-6.39-7.84s-3.93-5.48-5.74-8.32a99.28,99.28,0,0,1-9.11-17.73c-2.29-5.72-4.22-12.08-3.68-18.1a33.18,33.18,0,0,1,5.08-15.63c.06-.14.33.21.31.28-6.07,10.6-3.86,23.64.11,34.12a110.34,110.34,0,0,0,8.2,17c3.34,5.59,7.44,10.89,11.31,16.12C1602.84,1828.82,1602.76,1829,1602.53,1828.64Z"/>
            <path class="cls-5" d="M1608.06,1744.83a35.14,35.14,0,0,0-13.78,5.05,34.52,34.52,0,0,0-4.21,3.19,27.53,27.53,0,0,1,8.17-6.88,34.07,34.07,0,0,1,15.66-3.91c5.53.09,10.35,1.9,15.24,4.79a2.9,2.9,0,0,0,.51.29C1623.2,1743.87,1615.14,1743.64,1608.06,1744.83Z"/>
            <path class="cls-5" d="M1661.08,1790.64c-.62-1.65-1.43-3.23-2.15-4.81-.8-1.83-1.56-3.66-2.44-5.41-1.71-3.51-3.49-7-5.36-10.29a182,182,0,0,0-11.77-18.5c-.15-.2-.28-.72,0-.42a56.16,56.16,0,0,1,6.7,7.85,105.38,105.38,0,0,1,6,10.28c1.91,3.69,3.73,7.46,5.47,11.23.8,1.78,1.4,3.68,2,5.51.56,1.57,1.25,3.12,1.72,4.72C1661.4,1791.07,1661.12,1790.81,1661.08,1790.64Z"/>
            <path class="cls-5" d="M1622.34,1849.2c-2.15-3-4.75-5.74-7.11-8.55-2.79-3.26-5.54-6.7-8.28-10a188.06,188.06,0,0,1-15.16-21.2c-.38-.5,0-.53.28-.15,2.58,3.31,5,6.89,7.55,10.27s5.26,7,8,10.44,5.38,6.85,8.11,10.21c2.29,2.94,4.75,5.83,6.83,8.94C1622.65,1849.36,1622.49,1849.38,1622.34,1849.2Z"/>
            <path class="cls-5" d="M1670.57,1830c-4.09-14-8.87-28-12.7-42.1-.19-.65.42-.08.52.23,2.84,6.53,4.77,13.58,6.8,20.5,2.06,7.14,4.07,14.3,5.61,21.51C1670.87,1830.35,1670.62,1830.11,1670.57,1830Z"/>
            <path class="cls-5" d="M1691.29,1909.29c-2-5.87-4.13-11.77-5.92-17.61s-3.34-11.68-4.79-17.56c-.87-3.48-1.68-7-2.5-10.54,1.72,5.39,3.38,10.79,5,16.19,1,4,2,8.1,3.18,12,1.65,5.89,3.47,11.8,5.29,17.63C1691.64,1909.72,1691.36,1909.46,1691.29,1909.29Z"/>
            <path class="cls-5" d="M1718.11,1975.24c-5-11-10-22.24-14.44-33.52-2.15-5.49-4.36-11-6.37-16.53a130.35,130.35,0,0,1-4.8-15.92c-.1-.53.39,0,.49.34,7.29,22.25,16.23,44.05,25.28,65.69C1718.37,1975.53,1718.16,1975.38,1718.11,1975.24Z"/>
            <path class="cls-5" d="M1694,1945.05c2.11,3.51,4.21,7,6.23,10.6,1.27,2.17,2.52,4.38,3.79,6.6,2.23,4.15,4.43,8.28,6.58,12.44-.6-.94-1.21-1.9-1.82-2.82-3-4.7-5.76-9.46-8.65-14.2s-5.55-9.21-8.22-13.84c-2-3.38-3.93-6.84-5.85-10.26C1688.78,1937.34,1691.44,1941.14,1694,1945.05Z"/>
            <path class="cls-5" d="M1686.77,1938.4c-1.56-2.61-3.39-4.89-5.13-7.34-2-2.72-4-5.54-5.93-8.3-4-5.78-8.16-11.49-12.22-17.24s-8.19-11.39-12.15-17.1-7.66-11.72-11.46-17.56c-.16-.26,0-.31.16-.12,4.09,5.6,8.4,11.17,12.38,16.81,4.12,5.81,8.22,11.69,12.35,17.54s8,11.43,11.74,17.21c1.86,2.84,3.72,5.7,5.54,8.59,1.61,2.49,3.4,4.84,4.87,7.47C1687.07,1938.64,1686.9,1938.6,1686.77,1938.4Z"/>
            <path class="cls-5" d="M1657.11,1898.27c-.86-1.34-2-2.59-3-3.83s-2-2.49-3.05-3.68c-2.29-2.65-4.52-5.37-6.69-8.06-4.69-5.77-9.37-11.57-14-17.34-9.08-11.23-18.29-22.48-26.7-34.2-.31-.37,0-.43.23-.14,9.27,11.32,18.43,22.78,27.61,34.18,4.66,5.79,9.29,11.61,14,17.39q3.49,4.34,6.92,8.74a56.85,56.85,0,0,1,4.94,7C1657.42,1898.52,1657.21,1898.38,1657.11,1898.27Z"/>
            <path class="cls-5" d="M1730.92,2005.12c-1.18-2.76-2-5.5-3.05-8.3q-1.77-4.75-3.6-9.52c-2.52-6.56-5-13.15-7.54-19.68s-5.08-13.08-7.67-19.54-5.51-12.95-8.3-19.41c-.12-.28-.26-.19-.18.06,2.49,6.45,4.76,13.1,7.32,19.53,2.6,6.66,5.29,13.3,7.91,20q3.82,9.7,7.75,19.33c1.34,3.12,2.66,6.28,3.89,9.42,1.19,2.74,2.11,5.51,3.4,8.24C1731,2005.52,1731.05,2005.36,1730.92,2005.12Z"/>
            <path class="cls-5" d="M1695.24,1911.27a38.21,38.21,0,0,1-1.48-4.66c-.45-1.49-.83-3-1.27-4.54-.86-3.42-1.78-6.8-2.72-10.18-2-7.19-4.08-14.38-6.07-21.56-3.88-14.1-7.57-28.37-11.91-42.33-.16-.45-.33-.27-.31.12,3.64,14.32,7.44,28.72,11.45,43,2,7.17,4.07,14.36,6.14,21.52,1,3.58,2.13,7.15,3.17,10.74a55.42,55.42,0,0,0,2.87,8.1C1695.23,1911.69,1695.28,1911.45,1695.24,1911.27Z"/>
            <path class="cls-5" d="M1624.64,1738.31a40.92,40.92,0,0,1,16.67,9.86c6,5.78,10.67,13.54,14.54,20.94,4.45,8.63,7.65,18.14,10.74,27.49,3.13,9.63,5.85,19.5,9,29.17.06.16-.19.06-.22-.11-2.61-7.42-4.76-15.18-7.15-22.67a214.21,214.21,0,0,0-11-28.08c-7-14.61-16.73-29.82-32.56-36.27C1624.48,1738.57,1624.4,1738.25,1624.64,1738.31Z"/>
            <path class="cls-5" d="M1574.47,1785.11s0-.08,0-.08c-2.08-10.13-.77-21.78,6-30.07a46.28,46.28,0,0,1,10.94-9.93,36.55,36.55,0,0,1,15-5.58c.15,0,.51.28.22.37-10.16,2.35-20.59,8.76-26,17.85a40.87,40.87,0,0,0-4.49,30.65c2.81,11.3,8.53,21.83,14.46,31.9,6.37,10.73,13.83,20.9,21.34,30.94.13.21-.12.1-.25,0a352.22,352.22,0,0,1-23.43-34.14C1582.42,1807,1576.57,1796.18,1574.47,1785.11Z"/>
            <path class="cls-6" d="M1612.38,1823a197.6,197.6,0,0,0,11.77,16.8c3.45,4.35,7,8.75,10.39,13.15,4.42,5.64,8.82,11.31,13.26,16.92-1.49-3.26-3.43-6.3-5.16-9.41-1.45-2.5-2.88-5.06-4.3-7.55,2.08,2.81,4.15,5.67,6.21,8.52,2.27,3.26,4.35,6.62,6.52,10,1.87,2.19,3.74,4.38,5.51,6.66-3.12-6.16-6.34-12.25-9.58-18.29,2.31,3.12,4.48,6.33,6.53,9.58,1.15,1.79,2.81,5.21,4.56,5.8.27.06.51,0,.43-.33-.76-3.52-3-6.84-4.54-10.1-1.06-2.11-2.06-4.39-3.1-6.61,1.46,2.59,2.92,5.22,4.44,7.74,3.89,6.41,8.17,12.74,12.3,19.07a94.17,94.17,0,0,1,5.34,8.61,30.23,30.23,0,0,0,3.44,5.46c.3.33,1.16.94,1.2.27-.18-2.28-1.49-5.31-2.28-7.75l-4.35-13c-3-8.93-6.11-17.91-9.18-26.82-2.71-7.81-5.2-15.8-8.23-23.44-.29-.78-.64-1.56-1-2.3.34.4.59.85.92,1.29a157.59,157.59,0,0,1,9.64,15.62c1.63,3.14,2.89,6.8,5,9.56.22.33,1,.8,1.07.2,0-3.65-1.73-7.41-2.92-10.89-1.91-5.64-3.63-11.58-5.63-17.22s-4-11.28-6.37-16.64c-1.7-3.76-3.77-7.48-5.85-11.17a82.82,82.82,0,0,1,6,9.46c1.63,3,3,6.4,5,9.16.22.33,1.32.93,1.15.06-1.78-7.58-5-14.85-8.31-21.89-1.66-3.58-3.44-7.08-5.4-10.51-1.18-2-2.54-3.8-3.84-5.66a85.3,85.3,0,0,1,6,8c2.2,3.25,4.06,6.88,6.1,10.22.22.38,1.2.8,1,.09a100.34,100.34,0,0,0-4.53-12.75q-2.62-6.08-5.7-11.79c-3.55-6.53-8.3-13.09-14.24-17.59a29.46,29.46,0,0,0-35.35-.12c-5.46,4-10,9.38-11.39,16.16-1.58,8,1.11,16,4.22,23,6.41,14.18,16.42,27,25.95,39.79,2,2,4.07,4,6,6.13-2.21-3.88-4.66-7.7-6.86-11.48-.86-1.62-1.7-3.32-2.55-5C1611.93,1822.38,1612.12,1822.71,1612.38,1823Z"/>
            <path class="cls-7" d="M1592.08,1789.81a28.88,28.88,0,0,1-1-24,17.5,17.5,0,0,1,3.28-5.23,5.32,5.32,0,0,1-1,.62c-.1.07-.46-.14-.26-.24,1.87-1.4,2.8-3.08,4.9-4.22a77.19,77.19,0,0,1,8.63-3.73,24.81,24.81,0,0,1,5.76-1.48,23.73,23.73,0,0,1,5.48-.27,39.67,39.67,0,0,1,18.88,12.24,61.2,61.2,0,0,1,4.53,8c-3.89-4-7.92-7.16-13.35-8.82a59.06,59.06,0,0,1,9.75,8.49c.24.28.48.59.71.89,4.09,5.68,6.41,12.11,8.33,18.75a112.19,112.19,0,0,0-8.12-10.33c-3.69-4-8.12-8.14-13.24-10.41,1,.91,2.07,1.72,3.08,2.71a63.66,63.66,0,0,1,5.19,5.7A78.77,78.77,0,0,1,1643,1795c.1.29.23.57.36.88a237.45,237.45,0,0,1,7.59,29.51,1.43,1.43,0,0,1-.32-.34c-1.91-3.6-3.7-7.37-5.88-10.64-2-3-4.57-5.91-6.42-9.06a25,25,0,0,0-1.57-2.2s2.24,3.76,3.22,5.58a123.82,123.82,0,0,1,5.58,11.77c3,7.36,5.36,15.23,7.69,22.78,1.15,3.78,4.27,9.74,3,12.59-.06.16-.39.24-.67.09-2.13-1.17-4.49-5-6.12-7.06-4.23-5.46-8.71-10.82-13.12-16.12-2.75-3.25-5.41-6.67-8-10.1.11.24.25.45.34.69,1.32,2.56,2.39,5.32,3.53,8,1.21,2.84,2.78,5.6,3.76,8.49.09.28,0,.42-.19.47-1.52-1.18-3-2.51-4.4-3.86-1.71-2.18-3.32-4.63-4.86-6.6-4-5.1-8.22-10.21-12-15.44a121.64,121.64,0,0,1-8.1-13.17c1.19,4.31,2.37,8.61,3.58,12.88-1.32-1.18-2.68-2.28-4-3.4-1.53-1.75-3.08-3.53-4.57-5.34A119.47,119.47,0,0,1,1592.08,1789.81Z"/>
            <path class="cls-8" d="M1591.2,1771.28a23.53,23.53,0,0,1,9.65-13.19c.87-.5,1.73-.95,2.56-1.35s1.55-.72,2.3-1a27.3,27.3,0,0,1,9.42-1.88,17.92,17.92,0,0,1,3.16.24,21.88,21.88,0,0,1,5.61,1.7,22.6,22.6,0,0,0-17.48,1.89,28.34,28.34,0,0,0-12.28,13.3,22.06,22.06,0,0,0-2.28,10.58c0,.2-.33.08-.36-.07a51.14,51.14,0,0,1-.45-9.77A4.29,4.29,0,0,0,1591.2,1771.28Z"/>
          </g>
          <g class="rocket-flame">
            <path class="cls-4" d="M1900.17,1999.14c-11.9-24.77-33.28-75.65-33.28-75.65s20.06,40.81,29.91,61.3c-8.48-21.37-17.2-42.7-25.29-64-5.42-14.31-10.52-28.92-15.93-43.29-4.22-11.48-8.62-23-13-34.42-1.26-3.27-3.69-9.92-3.72-9.92s16.18,37.08,24.85,55.35c-1.79-6.16-3.83-12.3-5.78-18.35-2.15-6.79-4.14-13.68-6-20.59-2.06-7.4-4.14-14.85-6.29-22.17-2-6.51-5.34-19.7-5.31-19.7s10.08,29.54,15.68,44.12c-3.06-14.86-6.8-29.58-10.47-44.31-1.29-4.51-2.67-9-4-13.51-4.92-16.94-9.24-34.18-15-50.81-6-17.4-14.22-35.51-24.57-50.87-22.54-33.79-71.23-27.17-90.93,6.68-7.39,12.78-6,28.43-.58,41.39,6.2,14.81,15.26,28.39,24.84,41.48,11.41,15.69,23.7,31,35.41,46.64,6.27,8.35,12.54,16.65,18.91,24.92-6.15-10.45-19.28-31-19.23-31s7.7,10,11.21,15.18c3.66,5.44,7.5,10.73,11.4,16-3.83-7-11.08-21.23-11-21.26s36.8,56.52,56.42,84c1,1.24,2,2.49,2.93,3.68-6-10.44-17.64-31.25-17.63-31.21s15.3,21,22.43,31.73c9.16,13.7,18.27,27.37,26.89,41.35,11.16,18,22.1,36.23,33.07,54.36,2.61,4.23,5.49,8.48,8,12.85,1.29,2.34,2.61,4.77,4,7.11C1912.24,2023.73,1906.1,2011.43,1900.17,1999.14Z"/>
            <path class="cls-5" d="M1742.79,1680.53c-6.25,3.26-13,6.11-17.72,11.62-4.4,5.24-8.21,11.34-9.89,18.09-2,8.6-1.36,17.21.47,25.58a87,87,0,0,0,4.19,12.84c1.35,3.23,3.33,6.42,4.53,9.7,0,.23-.23.07-.23-.1-1.68-3.69-4.08-7.14-5.79-10.82a62.09,62.09,0,0,1-4.42-12.56,64,64,0,0,1-1-25.82c2.32-14.61,16.07-24.45,29.69-28.89C1742.75,1680.12,1743,1680.44,1742.79,1680.53Z"/>
            <path class="cls-5" d="M1786.74,1681.28a76.53,76.53,0,0,1,7.2,6.94c9.5,10.41,16.84,22.34,22.78,35.16.1.28-.08.24-.15.07a144.27,144.27,0,0,0-22.89-33.09,70.86,70.86,0,0,0-14-11.71,83.34,83.34,0,0,0-8.18-4.35A40.64,40.64,0,0,1,1786.74,1681.28Z"/>
            <path class="cls-5" d="M1739.44,1800.19c-3.41-4.07-6.88-8.22-10.13-12.41s-6.22-8.69-9.09-13.18a158.18,158.18,0,0,1-14.43-28.09c-3.63-9.06-6.69-19.14-5.82-28.67a52.24,52.24,0,0,1,8-24.77c.09-.23.51.33.48.44-9.62,16.8-6.12,37.45.18,54.06a173.87,173.87,0,0,0,13,26.88c5.29,8.87,11.79,17.26,17.93,25.54C1739.94,1800.49,1739.81,1800.7,1739.44,1800.19Z"/>
            <path class="cls-5" d="M1748.2,1667.42a53.59,53.59,0,0,0-28.5,13c3.8-4.45,8.07-8.4,13-10.89a54,54,0,0,1,24.8-6.2c8.77.14,16.41,3,24.15,7.59a4,4,0,0,0,.81.46C1772.19,1665.89,1759.42,1665.53,1748.2,1667.42Z"/>
            <path class="cls-5" d="M1832.2,1740c-1-2.61-2.27-5.11-3.41-7.62-1.27-2.9-2.47-5.81-3.87-8.58-2.71-5.56-5.53-11-8.49-16.3a284.19,284.19,0,0,0-18.64-29.3c-.24-.32-.45-1.15,0-.67a89.56,89.56,0,0,1,10.62,12.43,166.46,166.46,0,0,1,9.48,16.29c3,5.84,5.9,11.82,8.67,17.79,1.26,2.82,2.21,5.83,3.24,8.72.88,2.5,2,5,2.72,7.5C1832.7,1740.68,1832.26,1740.26,1832.2,1740Z"/>
            <path class="cls-5" d="M1770.83,1832.78c-3.41-4.71-7.53-9.11-11.27-13.56-4.42-5.17-8.78-10.61-13.11-15.9-8.62-10.74-17-21.81-24-33.58-.59-.8,0-.85.46-.25,4.07,5.25,8,10.92,12,16.28,4.06,5.55,8.33,11.08,12.59,16.54s8.52,10.85,12.85,16.17c3.62,4.65,7.52,9.24,10.81,14.16C1771.32,1833,1771.07,1833.06,1770.83,1832.78Z"/>
            <path class="cls-5" d="M1847.23,1802.29c-6.47-22.1-14-44.37-20.11-66.7-.31-1,.66-.13.82.36,4.5,10.35,7.55,21.51,10.76,32.47,3.27,11.32,6.46,22.66,8.89,34.09C1847.71,1802.91,1847.31,1802.53,1847.23,1802.29Z"/>
            <path class="cls-5" d="M1880.06,1928c-3.18-9.3-6.54-18.65-9.39-27.9-2.91-9.07-5.28-18.51-7.57-27.82-1.39-5.52-2.68-11.11-4-16.7q4.06,12.81,7.95,25.65c1.6,6.41,3.19,12.83,5,19,2.62,9.32,5.5,18.69,8.38,27.93C1880.61,1928.65,1880.17,1928.23,1880.06,1928Z"/>
            <path class="cls-5" d="M1922.55,2032.45c-7.94-17.51-15.82-35.23-22.87-53.11-3.41-8.7-6.91-17.48-10.1-26.18a207.34,207.34,0,0,1-7.61-25.23c-.16-.84.63.08.78.55,11.55,35.25,25.72,69.78,40.06,104.06C1923,2032.91,1922.63,2032.67,1922.55,2032.45Z"/>
            <path class="cls-5" d="M1884.31,1984.62c3.34,5.55,6.66,11.17,9.87,16.79,2,3.45,4,6.94,6,10.45,3.52,6.57,7,13.12,10.42,19.71-1-1.48-1.92-3-2.89-4.47-4.67-7.43-9.13-15-13.7-22.5-4.37-7.31-8.79-14.58-13-21.91-3.13-5.36-6.23-10.84-9.28-16.25C1876.08,1972.41,1880.29,1978.42,1884.31,1984.62Z"/>
            <path class="cls-5" d="M1872.9,1974.08c-2.47-4.14-5.37-7.74-8.13-11.62-3.16-4.32-6.28-8.78-9.39-13.15-6.42-9.17-12.92-18.21-19.37-27.32s-13-18-19.24-27.09-12.14-18.57-18.16-27.82c-.25-.41,0-.49.25-.18,6.48,8.87,13.32,17.69,19.62,26.63,6.53,9.21,13,18.51,19.57,27.79,6.35,9,12.68,18.09,18.6,27.26,2.94,4.49,5.88,9,8.78,13.61,2.54,3.94,5.38,7.67,7.71,11.83C1873.37,1974.46,1873.11,1974.4,1872.9,1974.08Z"/>
            <path class="cls-5" d="M1825.91,1910.51c-1.37-2.13-3.19-4.11-4.72-6.08s-3.17-3.94-4.83-5.82c-3.62-4.2-7.16-8.5-10.61-12.76q-11.14-13.72-22.21-27.48c-14.39-17.79-29-35.62-42.3-54.18-.49-.58,0-.68.36-.22,14.69,17.94,29.19,36.09,43.74,54.15q11.07,13.76,22.1,27.55,5.52,6.87,11,13.85a89.22,89.22,0,0,1,7.84,11C1826.4,1910.9,1826.07,1910.69,1825.91,1910.51Z"/>
            <path class="cls-5" d="M1942.85,2079.79c-1.88-4.38-3.2-8.71-4.85-13.15-1.85-5-3.76-10-5.69-15.08-4-10.39-8-20.84-12-31.19s-8-20.71-12.15-31-8.73-20.51-13.14-30.74c-.2-.45-.42-.3-.29.09,3.94,10.22,7.54,20.75,11.6,31,4.12,10.54,8.37,21.07,12.53,31.63q6,15.38,12.28,30.63c2.12,5,4.2,9.94,6.15,14.92,1.88,4.35,3.35,8.73,5.4,13.06C1942.91,2080.42,1943.05,2080.17,1942.85,2079.79Z"/>
            <path class="cls-5" d="M1886.31,1931.11a64.48,64.48,0,0,1-2.34-7.38c-.7-2.37-1.32-4.84-2-7.21-1.37-5.4-2.84-10.76-4.32-16.11-3.21-11.39-6.47-22.79-9.62-34.17-6.14-22.34-12-45-18.87-67-.25-.72-.52-.44-.49.18,5.77,22.7,11.8,45.5,18.14,68.09,3.11,11.36,6.45,22.75,9.74,34.1,1.65,5.67,3.36,11.33,5,17a87,87,0,0,0,4.54,12.82C1886.3,1931.77,1886.39,1931.39,1886.31,1931.11Z"/>
            <path class="cls-5" d="M1774.47,1657.09a64.75,64.75,0,0,1,26.41,15.63c9.55,9.15,16.9,21.45,23,33.17,7.06,13.67,12.13,28.73,17,43.55,5,15.26,9.27,30.89,14.29,46.21.1.25-.3.1-.35-.18-4.13-11.75-7.54-24-11.33-35.91a341.43,341.43,0,0,0-17.48-44.49c-11-23.15-26.52-47.23-51.59-57.45C1774.21,1657.5,1774.1,1657,1774.47,1657.09Z"/>
            <path class="cls-5" d="M1695,1731.23c0-.08,0-.12,0-.12-3.29-16-1.22-34.51,9.54-47.64a73.31,73.31,0,0,1,17.32-15.73c7.18-4.37,15.11-7.91,23.85-8.84.23,0,.81.44.34.59-16.08,3.72-32.61,13.87-41.16,28.28a64.66,64.66,0,0,0-7.12,48.55c4.45,17.91,13.51,34.58,22.92,50.54,10.07,17,21.9,33.11,33.79,49,.21.32-.18.15-.39,0-13.27-17.41-26.08-35.35-37.12-54.08C1707.59,1766,1698.31,1748.77,1695,1731.23Z"/>
            <path class="cls-6" d="M1755.05,1791.3a316.47,316.47,0,0,0,18.64,26.61c5.48,6.89,11,13.86,16.46,20.84,7,8.93,14,17.91,21,26.8-2.36-5.17-5.44-10-8.18-14.91-2.28-4-4.56-8-6.81-12,3.29,4.44,6.58,9,9.84,13.49,3.59,5.16,6.9,10.5,10.34,15.79,3,3.46,5.91,6.93,8.73,10.55-5-9.76-10.06-19.4-15.19-29,3.66,5,7.1,10,10.35,15.18,1.82,2.84,4.46,8.26,7.22,9.19.43.09.81,0,.69-.52-1.21-5.57-4.7-10.84-7.19-16-1.68-3.35-3.27-7-4.92-10.48,2.31,4.1,4.63,8.27,7,12.26,6.16,10.15,13,20.19,19.49,30.21A157.26,157.26,0,0,1,1851,1903a48.47,48.47,0,0,0,5.45,8.64c.48.53,1.83,1.49,1.91.43-.3-3.61-2.37-8.42-3.62-12.27-2.28-6.79-4.6-13.69-6.89-20.53-4.84-14.14-9.67-28.37-14.55-42.48-4.29-12.38-8.23-25-13-37.13-.46-1.24-1-2.48-1.51-3.65.54.64.94,1.35,1.45,2a247.4,247.4,0,0,1,15.28,24.75c2.58,5,4.58,10.76,8,15.14.36.51,1.65,1.26,1.7.32.08-5.78-2.74-11.75-4.63-17.25-3-9-5.75-18.36-8.91-27.29s-6.41-17.88-10.09-26.36c-2.7-6-6-11.85-9.28-17.69a129.77,129.77,0,0,1,9.46,15c2.59,4.77,4.76,10.14,7.84,14.52.36.51,2.1,1.46,1.82.09-2.82-12-7.9-23.53-13.16-34.69-2.63-5.67-5.45-11.21-8.56-16.64-1.86-3.21-4-6-6.08-9a130.1,130.1,0,0,1,9.49,12.66c3.5,5.14,6.44,10.9,9.66,16.19.35.6,1.91,1.26,1.59.14a157.63,157.63,0,0,0-7.18-20.19q-4.15-9.63-9-18.69c-5.62-10.34-13.14-20.73-22.56-27.87a46.68,46.68,0,0,0-56-.19c-8.64,6.39-15.86,14.86-18,25.61-2.51,12.58,1.76,25.36,6.69,36.48,10.14,22.47,26,42.79,41.1,63,3.24,3.18,6.45,6.36,9.56,9.72-3.5-6.15-7.39-12.19-10.87-18.19-1.36-2.56-2.7-5.26-4-7.93C1754.33,1790.28,1754.64,1790.81,1755.05,1791.3Z"/>
            <path class="cls-7" d="M1722.88,1738.68a45.78,45.78,0,0,1-1.54-38,28.2,28.2,0,0,1,5.2-8.28,8.5,8.5,0,0,1-1.57,1c-.17.11-.73-.22-.42-.39,3-2.21,4.43-4.87,7.77-6.68a126.51,126.51,0,0,1,13.66-5.91,38.74,38.74,0,0,1,9.12-2.33,37.23,37.23,0,0,1,8.69-.44c11.54,3.61,22.12,10,29.92,19.39a98.93,98.93,0,0,1,7.17,12.73c-6.16-6.33-12.56-11.34-21.15-14a94.63,94.63,0,0,1,15.45,13.45c.38.45.76.94,1.12,1.42,6.48,9,10.15,19.18,13.19,29.7a180.16,180.16,0,0,0-12.85-16.37c-5.85-6.42-12.87-12.89-21-16.49,1.58,1.45,3.29,2.72,4.89,4.29a101.73,101.73,0,0,1,8.22,9c6.11,7.92,10.77,16.92,14.85,26.18.17.45.37.9.58,1.39a375,375,0,0,1,12,46.75,2.49,2.49,0,0,1-.5-.54c-3-5.69-5.87-11.68-9.31-16.85-3.13-4.7-7.25-9.36-10.18-14.36a39.51,39.51,0,0,0-2.48-3.49s3.54,6,5.09,8.84a194.65,194.65,0,0,1,8.84,18.66c4.75,11.65,8.5,24.13,12.19,36.08,1.82,6,6.76,15.43,4.67,20-.09.26-.61.38-1.06.15-3.37-1.86-7.11-7.93-9.7-11.19-6.69-8.65-13.8-17.15-20.78-25.54-4.35-5.15-8.57-10.57-12.68-16,.18.38.4.72.55,1.11,2.09,4,3.78,8.42,5.59,12.61,1.91,4.51,4.4,8.87,6,13.45.15.45,0,.67-.3.75-2.41-1.86-4.68-4-7-6.12-2.71-3.45-5.25-7.34-7.7-10.45-6.41-8.08-13-16.18-19-24.46a191.54,191.54,0,0,1-12.83-20.87c1.88,6.84,3.75,13.64,5.68,20.41-2.1-1.87-4.25-3.61-6.38-5.38-2.42-2.78-4.87-5.6-7.24-8.47A188.88,188.88,0,0,1,1722.88,1738.68Z"/>
            <path class="cls-8" d="M1721.49,1709.33a37.2,37.2,0,0,1,15.29-20.9c1.37-.8,2.74-1.5,4.06-2.14s2.44-1.13,3.64-1.63a43.21,43.21,0,0,1,14.93-3,28.38,28.38,0,0,1,5,.39,34.69,34.69,0,0,1,8.89,2.7,35.78,35.78,0,0,0-27.69,3c-8.41,4.81-15.69,12.06-19.46,21.08a34.86,34.86,0,0,0-3.61,16.76c0,.31-.53.12-.57-.12a79.08,79.08,0,0,1-.71-15.47C1721.35,1709.75,1721.43,1709.54,1721.49,1709.33Z"/>
          </g>
          <g class="rocket-flame-right">
            <path class="cls-4" d="M1989.48,1841.88c-8-16.73-22.48-51.1-22.48-51.1s13.55,27.56,20.21,41.4c-5.73-14.43-11.62-28.84-17.09-43.26-3.66-9.66-7.1-19.53-10.76-29.24-2.85-7.76-5.83-15.55-8.8-23.25-.85-2.21-2.49-6.7-2.51-6.7s10.92,25,16.78,37.39c-1.21-4.17-2.59-8.31-3.91-12.4-1.44-4.59-2.79-9.24-4.05-13.91-1.39-5-2.8-10-4.25-15-1.36-4.4-3.61-13.31-3.59-13.31s6.81,20,10.59,29.8c-2.06-10-4.59-20-7.07-29.93-.87-3.05-1.8-6.08-2.68-9.13-3.32-11.44-6.24-23.09-10.1-34.32-4.06-11.75-9.6-24-16.59-34.36-15.23-22.83-48.12-18.36-61.42,4.51-5,8.63-4.07,19.2-.4,28,4.19,10,10.31,19.18,16.78,28,7.71,10.6,16,20.93,23.92,31.5,4.24,5.65,8.47,11.25,12.78,16.84-4.16-7.06-13-20.92-13-20.92s5.2,6.78,7.57,10.26c2.47,3.67,5.07,7.24,7.7,10.81-2.59-4.71-7.49-14.33-7.45-14.35s24.86,38.17,38.11,56.72c.67.84,1.32,1.68,2,2.48-4-7.05-11.91-21.11-11.91-21.08s10.33,14.2,15.15,21.44c6.19,9.25,12.34,18.48,18.17,27.93,7.54,12.15,14.92,24.47,22.33,36.72,1.77,2.85,3.72,5.72,5.39,8.68.87,1.58,1.77,3.22,2.68,4.8C1997.64,1858.49,1993.49,1850.18,1989.48,1841.88Z"/>
            <path class="cls-5" d="M1883.17,1626.65c-4.23,2.2-8.81,4.13-12,7.85a31,31,0,0,0-6.68,12.22,38.75,38.75,0,0,0,.31,17.28,58.9,58.9,0,0,0,2.84,8.67c.9,2.19,2.24,4.34,3.06,6.55,0,.16-.16,0-.16-.06-1.13-2.49-2.76-4.82-3.91-7.31a41.33,41.33,0,0,1-3-8.49,43.21,43.21,0,0,1-.68-17.44c1.56-9.87,10.85-16.51,20.06-19.51C1883.14,1626.38,1883.3,1626.59,1883.17,1626.65Z"/>
            <path class="cls-5" d="M1912.85,1627.15a50.55,50.55,0,0,1,4.87,4.7,92.27,92.27,0,0,1,15.39,23.74c.07.2-.06.17-.1.05a97.78,97.78,0,0,0-15.46-22.35,48.24,48.24,0,0,0-9.45-7.91,56.35,56.35,0,0,0-5.53-2.93A27.41,27.41,0,0,1,1912.85,1627.15Z"/>
            <path class="cls-5" d="M1880.91,1707.49c-2.31-2.76-4.65-5.56-6.85-8.39s-4.2-5.87-6.14-8.9a107.29,107.29,0,0,1-9.75-19c-2.45-6.12-4.51-12.93-3.93-19.37a35.27,35.27,0,0,1,5.44-16.73c.06-.15.34.23.33.3-6.5,11.35-4.14,25.3.12,36.52a117,117,0,0,0,8.77,18.16c3.57,6,8,11.65,12.1,17.25C1881.24,1707.68,1881.15,1707.82,1880.91,1707.49Z"/>
            <path class="cls-5" d="M1886.83,1617.79a37.61,37.61,0,0,0-14.76,5.41,38,38,0,0,0-4.5,3.41,29.56,29.56,0,0,1,8.75-7.36,36.52,36.52,0,0,1,16.75-4.19c5.92.1,11.08,2,16.31,5.13a3,3,0,0,0,.55.31C1903,1616.76,1894.4,1616.52,1886.83,1617.79Z"/>
            <path class="cls-5" d="M1943.56,1666.82c-.66-1.76-1.53-3.45-2.3-5.14-.85-2-1.67-3.93-2.61-5.8-1.83-3.75-3.74-7.46-5.73-11a194.48,194.48,0,0,0-12.6-19.8c-.16-.21-.3-.77,0-.45a60.87,60.87,0,0,1,7.17,8.4,114,114,0,0,1,6.41,11c2,3.94,4,8,5.85,12,.85,1.9,1.5,3.94,2.19,5.9.6,1.68,1.33,3.34,1.84,5.06C1943.9,1667.28,1943.61,1667,1943.56,1666.82Z"/>
            <path class="cls-5" d="M1902.11,1729.5c-2.3-3.18-5.09-6.16-7.62-9.16-3-3.49-5.92-7.17-8.85-10.74a202,202,0,0,1-16.23-22.69c-.4-.54,0-.57.31-.17,2.75,3.55,5.39,7.38,8.08,11s5.62,7.49,8.5,11.18,5.76,7.33,8.68,10.92c2.45,3.14,5.08,6.24,7.3,9.56C1902.44,1729.66,1902.27,1729.68,1902.11,1729.5Z"/>
            <path class="cls-5" d="M1953.72,1708.9c-4.37-14.93-9.49-30-13.59-45.06-.21-.69.45-.08.56.25,3,7,5.1,14.53,7.27,21.93,2.21,7.65,4.36,15.31,6,23C1954.05,1709.32,1953.77,1709.06,1953.72,1708.9Z"/>
            <path class="cls-5" d="M1975.9,1793.8c-2.15-6.28-4.42-12.6-6.34-18.84s-3.58-12.51-5.12-18.8c-.94-3.73-1.81-7.51-2.68-11.28q2.76,8.65,5.37,17.33c1.08,4.33,2.16,8.66,3.41,12.85,1.76,6.3,3.71,12.63,5.65,18.87C1976.27,1794.26,1976,1794,1975.9,1793.8Z"/>
            <path class="cls-5" d="M2004.6,1864.38c-5.36-11.83-10.69-23.8-15.45-35.88-2.3-5.88-4.67-11.81-6.82-17.68a138.29,138.29,0,0,1-5.14-17c-.11-.56.42.06.52.38,7.81,23.81,17.37,47.13,27.06,70.29C2004.87,1864.69,2004.65,1864.53,2004.6,1864.38Z"/>
            <path class="cls-5" d="M1978.76,1832.07c2.26,3.75,4.51,7.55,6.67,11.34,1.36,2.33,2.69,4.69,4.06,7.06,2.38,4.44,4.73,8.86,7,13.32-.64-1-1.3-2-2-3-3.15-5-6.17-10.12-9.26-15.2s-5.93-9.86-8.79-14.81c-2.11-3.61-4.21-7.32-6.27-11C1973.2,1823.82,1976.05,1827.88,1978.76,1832.07Z"/>
            <path class="cls-5" d="M1971.06,1825c-1.67-2.8-3.63-5.23-5.49-7.85-2.14-2.92-4.24-5.93-6.34-8.88-4.34-6.2-8.74-12.3-13.09-18.46s-8.76-12.18-13-18.3-8.2-12.54-12.26-18.79c-.18-.28,0-.33.17-.12,4.37,6,9,11.94,13.25,18,4.41,6.22,8.8,12.51,13.22,18.78,4.28,6.1,8.56,12.22,12.56,18.41,2,3,4,6.11,5.93,9.2,1.72,2.66,3.64,5.18,5.21,8C1971.38,1825.21,1971.2,1825.17,1971.06,1825Z"/>
            <path class="cls-5" d="M1939.32,1782c-.93-1.43-2.16-2.77-3.19-4.1s-2.14-2.66-3.27-3.93c-2.44-2.84-4.83-5.75-7.16-8.62-5-6.18-10-12.39-15-18.57-9.71-12-19.57-24.06-28.57-36.59-.33-.4,0-.46.24-.15,9.92,12.11,19.72,24.38,29.55,36.58,5,6.19,9.94,12.42,14.93,18.61q3.73,4.63,7.4,9.35a60.74,60.74,0,0,1,5.29,7.44C1939.65,1782.27,1939.42,1782.13,1939.32,1782Z"/>
            <path class="cls-5" d="M2018.31,1896.36c-1.27-3-2.16-5.89-3.27-8.88q-1.89-5.1-3.85-10.19c-2.69-7-5.37-14.08-8.07-21.07s-5.43-14-8.21-20.91-5.9-13.86-8.88-20.77c-.13-.3-.28-.21-.19.06,2.66,6.9,5.09,14,7.83,20.91,2.79,7.12,5.66,14.23,8.47,21.36,2.72,6.93,5.5,13.83,8.29,20.7,1.44,3.34,2.84,6.71,4.16,10.07,1.27,2.94,2.27,5.9,3.65,8.83C2018.35,1896.79,2018.45,1896.62,2018.31,1896.36Z"/>
            <path class="cls-5" d="M1980.12,1795.92a40.51,40.51,0,0,1-1.58-5c-.48-1.6-.89-3.27-1.36-4.87-.92-3.65-1.91-7.27-2.91-10.89-2.17-7.69-4.37-15.39-6.5-23.08-4.15-15.09-8.1-30.36-12.75-45.29-.17-.49-.35-.3-.33.12,3.9,15.33,8,30.73,12.25,46,2.11,7.68,4.36,15.37,6.58,23,1.12,3.83,2.27,7.65,3.4,11.5a58,58,0,0,0,3.07,8.66C1980.11,1796.37,1980.17,1796.11,1980.12,1795.92Z"/>
            <path class="cls-5" d="M1904.57,1610.82a43.76,43.76,0,0,1,17.84,10.55c6.45,6.19,11.41,14.49,15.55,22.41,4.77,9.24,8.2,19.41,11.5,29.42,3.35,10.31,6.26,20.87,9.65,31.22.07.17-.2.06-.23-.12-2.79-8-5.09-16.25-7.66-24.26a230,230,0,0,0-11.8-30.06c-7.44-15.63-17.92-31.9-34.85-38.8C1904.4,1611.09,1904.32,1610.75,1904.57,1610.82Z"/>
            <path class="cls-5" d="M1850.87,1660.9c0-.05,0-.08,0-.08-2.23-10.84-.83-23.31,6.44-32.18A49.63,49.63,0,0,1,1869,1618a39.2,39.2,0,0,1,16.12-6c.15,0,.54.3.23.4-10.87,2.51-22,9.36-27.81,19.1a43.65,43.65,0,0,0-4.81,32.79c3,12.1,9.13,23.37,15.48,34.15,6.81,11.48,14.79,22.36,22.83,33.11.14.22-.12.1-.26,0a374.62,374.62,0,0,1-25.08-36.53C1859.39,1684.36,1853.12,1672.75,1850.87,1660.9Z"/>
            <path class="cls-6" d="M1891.45,1701.47a215.48,215.48,0,0,0,12.59,18c3.7,4.65,7.46,9.36,11.12,14.07,4.73,6,9.44,12.1,14.19,18.11-1.59-3.5-3.67-6.75-5.52-10.08-1.55-2.67-3.08-5.41-4.6-8.08,2.22,3,4.44,6.07,6.64,9.12,2.43,3.48,4.66,7.09,7,10.66,2,2.34,4,4.69,5.89,7.13-3.34-6.59-6.79-13.11-10.26-19.58,2.48,3.34,4.8,6.78,7,10.25,1.23,1.92,3,5.58,4.88,6.21.28.06.54,0,.46-.36-.82-3.76-3.17-7.31-4.86-10.79-1.13-2.26-2.21-4.71-3.32-7.09,1.56,2.77,3.13,5.59,4.75,8.29,4.16,6.86,8.75,13.64,13.16,20.41a105.37,105.37,0,0,1,5.72,9.21,32.28,32.28,0,0,0,3.68,5.84c.33.36,1.24,1,1.29.29-.2-2.44-1.6-5.68-2.44-8.29l-4.66-13.86c-3.27-9.56-6.53-19.17-9.82-28.7-2.9-8.36-5.57-16.91-8.81-25.08-.31-.84-.69-1.68-1-2.47.36.43.64.91,1,1.39a165.12,165.12,0,0,1,10.32,16.72c1.75,3.35,3.1,7.27,5.39,10.22.24.35,1.11.86,1.15.22.05-3.91-1.85-7.94-3.12-11.66-2-6-3.89-12.4-6-18.43s-4.32-12.07-6.81-17.81c-1.83-4-4-8-6.27-12a88.6,88.6,0,0,1,6.39,10.13c1.75,3.22,3.22,6.84,5.3,9.8.24.35,1.42,1,1.23.06-1.91-8.12-5.34-15.89-8.89-23.43-1.78-3.83-3.69-7.57-5.78-11.24-1.26-2.17-2.72-4.07-4.11-6.06a89.85,89.85,0,0,1,6.41,8.55c2.36,3.47,4.34,7.37,6.52,10.94.24.41,1.29.85,1.07.1a107.14,107.14,0,0,0-4.84-13.65q-2.82-6.49-6.1-12.62c-3.8-7-8.88-14-15.24-18.82a31.53,31.53,0,0,0-37.83-.14c-5.84,4.32-10.72,10-12.19,17.3-1.7,8.51,1.19,17.13,4.52,24.65,6.85,15.18,17.57,28.9,27.77,42.58,2.18,2.14,4.35,4.29,6.45,6.56-2.36-4.15-5-8.23-7.34-12.29-.92-1.73-1.83-3.55-2.73-5.35A10.64,10.64,0,0,0,1891.45,1701.47Z"/>
            <path class="cls-7" d="M1869.72,1665.93a31,31,0,0,1-1-25.68,19.07,19.07,0,0,1,3.51-5.59,6.06,6.06,0,0,1-1.06.67c-.12.07-.49-.15-.28-.27,2-1.49,3-3.29,5.24-4.51a84.25,84.25,0,0,1,9.23-4,26,26,0,0,1,6.17-1.58,24.85,24.85,0,0,1,5.86-.3,42.61,42.61,0,0,1,20.21,13.1,66.44,66.44,0,0,1,4.85,8.6c-4.16-4.27-8.48-7.66-14.29-9.44a63.83,63.83,0,0,1,10.44,9.08c.26.31.51.64.76,1,4.37,6.07,6.85,13,8.9,20.07a120.06,120.06,0,0,0-8.68-11.06c-4-4.34-8.69-8.71-14.17-11.14,1.06,1,2.22,1.84,3.3,2.9a68.15,68.15,0,0,1,5.55,6.1,83.81,83.81,0,0,1,10,17.68c.12.31.25.61.39.94a254,254,0,0,1,8.13,31.58,1.41,1.41,0,0,1-.34-.36c-2-3.85-4-7.89-6.3-11.39-2.11-3.17-4.89-6.32-6.87-9.7a26.9,26.9,0,0,0-1.67-2.35s2.38,4,3.43,6a132.83,132.83,0,0,1,6,12.6c3.2,7.87,5.74,16.3,8.23,24.38,1.23,4,4.56,10.42,3.16,13.47-.07.18-.42.26-.72.1-2.28-1.25-4.81-5.35-6.55-7.56-4.52-5.84-9.33-11.58-14-17.25-2.94-3.48-5.79-7.14-8.57-10.81.12.26.27.48.37.75,1.42,2.73,2.56,5.69,3.78,8.52,1.29,3,3,6,4,9.08.1.31,0,.45-.2.51-1.63-1.26-3.16-2.69-4.71-4.14-1.83-2.33-3.55-4.95-5.21-7.06-4.32-5.45-8.79-10.92-12.83-16.52a129.57,129.57,0,0,1-8.67-14.1c1.27,4.62,2.53,9.22,3.83,13.79-1.41-1.26-2.86-2.44-4.3-3.63-1.64-1.88-3.3-3.79-4.9-5.73A127.94,127.94,0,0,1,1869.72,1665.93Z"/>
            <path class="cls-8" d="M1868.78,1646.11a25.14,25.14,0,0,1,10.33-14.12c.92-.54,1.85-1,2.74-1.45s1.65-.76,2.46-1.1a29.25,29.25,0,0,1,10.08-2,19.49,19.49,0,0,1,3.38.27,22.91,22.91,0,0,1,6,1.82,24.15,24.15,0,0,0-18.71,2,30.35,30.35,0,0,0-13.14,14.24,23.42,23.42,0,0,0-2.44,11.32c0,.21-.36.08-.39-.08a54.07,54.07,0,0,1-.48-10.45C1868.68,1646.39,1868.74,1646.25,1868.78,1646.11Z"/>
          </g>
          <path class="cls-9" d="M1913.42,1635.75l-45.5,21.14a35,35,0,0,1-22.09,3c-6.61-1.56-11.07-5.6-12.24-11.09L1823,1599.33c-2-9.33,5.72-20.37,18.37-26.24l25.13-11.68c12.64-5.87,26.06-4.66,31.9,2.89l31,40c3.43,4.43,3.64,10.45.57,16.51A35,35,0,0,1,1913.42,1635.75Z"/>
          <path class="cls-9" d="M1575.76,953.34c-27.66,12.88-28.11,70.55-19.44,89.24L1572,1076.4l100.18-46.54L1656.49,996C1647.8,977.35,1603.43,940.51,1575.76,953.34Z"/>
          <path class="cls-9" d="M1306.56,1439a11,11,0,0,1-4.62-20.89l517.33-240.36a11,11,0,0,1,14.55,5.32h0a11,11,0,0,1-5.32,14.55h0l-517.33,240.35A10.78,10.78,0,0,1,1306.56,1439Z"/>
          <rect class="cls-10" x="1671.75" y="1060.15" width="163.06" height="550.53" transform="translate(-399.45 863.09) rotate(-24.92)"/>
          <path class="cls-9" d="M1156.11,422.93c-27.65,12.88-28.11,70.55-19.44,89.24L1152.39,546l100.17-46.54-15.71-33.83C1228.16,446.94,1183.79,410.1,1156.11,422.93Z"/>
          <path class="cls-9" d="M1801.24,1725.37l-64.3,29.87a49.39,49.39,0,0,1-31.21,4.21c-9.33-2.21-15.64-7.92-17.29-15.67l-15-69.87c-2.83-13.18,8.09-28.78,26-37.08l35.51-16.49c17.86-8.3,36.82-6.59,45.07,4.07l43.75,56.5c4.86,6.26,5.15,14.76.82,23.32A49.42,49.42,0,0,1,1801.24,1725.37Z"/>
          <path class="cls-9" d="M1635.87,1762.56l-45.51,21.14a35,35,0,0,1-22.09,3c-6.6-1.57-11.07-5.61-12.24-11.09l-10.59-49.45c-2-9.33,5.73-20.37,18.37-26.24l25.13-11.68c12.65-5.87,26.06-4.66,31.9,2.88l31,40c3.44,4.43,3.64,10.45.58,16.51A35,35,0,0,1,1635.87,1762.56Z"/>
          <rect class="cls-10" x="1410.02" y="588.49" width="163.06" height="1112.83" transform="translate(-343.54 735.07) rotate(-24.92)"/>
          <polyline class="cls-9" points="1484.48 1126.2 1467.89 1089.68 1477.44 1085.28 1493.98 1121.67 1733.52 1652.79 1723.98 1657.23"/>
          <polyline class="cls-9" points="1671.63 1095.85 1655.04 1059.34 1664.59 1054.93 1681.13 1091.33 1920.67 1622.44 1911.13 1626.88"/>
          <path class="cls-10" d="M1400.84,686.71,1200.47,779.8c-12.75-19.84-51.21-121.54-42.57-151.72l-6.48-28.77L1289.76,535l18.52,22.78C1335.77,566.24,1389.29,661.77,1400.84,686.71Z"/>
          <path class="cls-10" d="M1295.55,536.26l-142.77,66.33c-5.27,2.45-10.88,1.55-12.54-2a5,5,0,0,1-.43-1.62l-7.39-78.83c-.32-3.38,2.57-7.2,7-9.25l94.68-44c4.41-2.05,9.2-1.79,11.58.63L1301.13,524c2.84,2.89,1.3,7.84-3.44,11A16.1,16.1,0,0,1,1295.55,536.26Z"/>
          <path class="cls-9" d="M1407.52,1153.83a19.64,19.64,0,0,1-4.58-.54,14.21,14.21,0,0,1-9.86-7.65L1305.8,957.77c-3.62-7.78,1.23-17.72,10.81-22.17l127.81-59.38c9.57-4.45,20.3-1.74,23.91,6l87.29,187.87a14.2,14.2,0,0,1-.51,12.47,21.51,21.51,0,0,1-10.3,9.7L1417,1151.67A22.54,22.54,0,0,1,1407.52,1153.83Z"/>
          <rect class="cls-10" x="1385.52" y="1190.99" width="163.06" height="550.53" transform="translate(-481.23 754.66) rotate(-24.92)"/>
          <path class="cls-9" d="M1242.82,544.49l-43.37,20.15c-8.36,3.89-19.65-2.59-25.16-14.44s-3.17-24.65,5.19-28.54l43.37-20.15c8.37-3.89,19.66,2.59,25.16,14.44S1251.19,540.61,1242.82,544.49Z"/>
          <path class="cls-9" d="M1292.42,1082.84c-27.66,12.87-28.12,70.55-19.44,89.23l15.71,33.83,100.18-46.55-15.72-33.82C1364.46,1106.85,1320.09,1070,1292.42,1082.84Z"/>
          <path class="cls-9" d="M1804.35,1257.06a21.51,21.51,0,0,1-28.55-10.44l-25.58-55a21.5,21.5,0,0,1,39-18.12l25.58,55A21.51,21.51,0,0,1,1804.35,1257.06Z"/>
          <path class="cls-9" d="M1369.35,1459.39A21.51,21.51,0,0,1,1340.8,1449l-25.58-55a21.5,21.5,0,1,1,39-18.11l25.58,55A21.52,21.52,0,0,1,1369.35,1459.39Z"/>
          <path class="cls-10" d="M1765,1136.79l-171.48,79.68c-10.92-17-43.83-104-36.44-129.85l3.63-28.89,102.39-50.24,22.69,19C1717.7,1015.66,1764.69,1094.88,1765,1136.79Z"/>
          <path class="cls-9" d="M1685.34,1131.27,1642,1151.42c-8.37,3.89-21.1-5.7-28.38-21.37s-6.39-31.58,2-35.46l43.36-20.15c8.37-3.89,21.1,5.7,28.38,21.36S1693.71,1127.38,1685.34,1131.27Z"/>
          <polyline class="cls-9" points="1317.56 1234.94 1300.97 1198.43 1310.52 1194.03 1327.06 1230.42 1566.6 1761.54 1557.06 1765.97"/>
          <path class="cls-10" d="M1481.61,1266.29,1310.13,1346c-25.3-13.06-64-98.53-36.44-129.85l3.62-28.89L1379.7,1137l22.69,19C1425.92,1163.19,1471.72,1244.94,1481.61,1266.29Z"/>
          <path class="cls-9" d="M1398.47,1253.17l-43.37,20.15c-8.37,3.89-20.31-4-26.61-17.57s-4.63-27.78,3.74-31.67l43.36-20.15c8.37-3.88,20.31,4,26.62,17.57S1406.84,1249.28,1398.47,1253.17Z"/>
          <polygon class="cls-10" points="1834.19 1316.07 1950.97 1346.3 2022.59 1486.99 1901.5 1491.74 1834.19 1316.07"/>
          <polygon class="cls-11" points="1564.64 1113.25 1628.91 1177.56 1792.15 1530.51 1762.1 1556.47 1564.64 1113.25"/>
          <polygon class="cls-11" points="1424.88 1171.55 1429.92 1262.33 1584.01 1619.37 1623.4 1614.3 1424.88 1171.55"/>
          <polygon class="cls-10" points="1420.68 1538.3 1357.78 1641.23 1404.15 1792.14 1494.47 1711.35 1420.68 1538.3"/>
        </g>
      </g>
      <g class="jumprocket2">
        <g class="jupter-wheel">
          <circle class="cls-12" cx="531.86" cy="611.09" r="249.04" transform="translate(-276.33 555.06) rotate(-45)"/>
          <g>
            <path class="cls-13" d="M408.38,605.39c25.51-8.38,43.8-31.18,55.48-55.36,8.48-17.57,14.54-36.8,27.46-51.41,2.5-2.83,5.5-5.59,9.24-6.13,4.23-.61,8.24,1.75,12,3.84,20.09,11.23,45,16.78,66.2,7.78s35-36.1,24.2-56.42c17,1.16,33.08-14.53,32.39-31.5s-18-31.31-34.83-28.79a16.88,16.88,0,0,0-8.85,3.72c-3.29,3-4.56,7.51-6.08,11.68a71,71,0,0,1-44.1,42.54c-4,1.3-8.43,2.21-12.27.53-4.58-2-6.9-7-9.65-11.17-14.23-21.67-50.36-23.59-66.8-3.54-9.48,11.56-12,27.1-15.21,41.7S429.29,503,417,511.49s-33.46,4.48-36.52-10.15c-1.69-8.07,2.43-16.07,4.21-24.13s-.54-18.75-8.61-20.46c-3.35-.71-6.8.4-10,1.7C328.77,473.75,301,521.18,290,558.63c-12.62,43.26,37.7,61.82,51.75,19.35C352.36,603.15,383.22,613.65,408.38,605.39Z"/>
            <path class="cls-13" d="M661.57,490.61c-2.4,18.21-7.48,38.93-24,47.06-11.36,5.6-24.78,3.37-37.43,2.87-26.46-1-55.78,8.29-68.46,31.53-3.5,6.42-5.56,14-3.92,21.08s7.67,13.49,15,13.89,14.68-5.06,21.8-3c9.43,2.79,10.47,15.45,15.33,24,7.18,12.64,24.75,16.37,38.45,11.5s24-16.3,32.14-28.34,14.8-25.16,24.39-36.08c15-17.11,37.81-30.07,41.88-52.46,2.8-15.35-4.39-30.84-3.9-46.43.21-6.78,1.87-13.59.75-20.29-3-17.9-23.06-24.3-35.83-14.83C665.72,450.09,663.3,477.53,661.57,490.61Z"/>
            <path class="cls-13" d="M346.65,674.13c10.67-2.51,19.22-10.2,27.72-17.13,8.68-7.08,18.06-13.74,28.84-16.81s23.29-2,31.89,5.21c3.25,2.71,5.88,6.21,9.53,8.35,7.33,4.31,16.85,2,24.24-2.18,9.38-5.36,17.16-13.64,27.38-17.17s24.55.85,25.69,11.6c1,9.41-8.34,16.41-16.85,20.53a163.14,163.14,0,0,1-45.1,14.2c-15.76,2.55-32.62,3-46,11.72-10.45,6.78-17.4,17.75-26.73,26a64.9,64.9,0,0,1-29.33,14.8c-9.06,1.93-18.73,1.85-27.33-1.61C314.73,725.29,297.14,701,300.17,683,305,654.17,327.2,678.69,346.65,674.13Z"/>
            <path class="cls-13" d="M460.67,716.62c3.19-.47,6.55-.72,9.55.47C480,721,478.79,735.72,486,743.32c14.06,14.86,43.2-8.82,58.29,5,14.39,13.19-4.27,42.11,10.2,55.21,7.22,6.55,18.39,4.7,28,3.27s21.69-.83,26.22,7.81-1.77,18.84-9.26,24.86c-16.52,13.3-39,16.55-60.16,16.41-41.85-.28-110.47-13.2-139.5-47.28S425.71,721.71,460.67,716.62Z"/>
            <path class="cls-13" d="M617.44,694.9c10.79-2.78,22.87.74,33-3.94,6.27-2.9,10.77-8.51,15.59-13.46,7.37-7.54,16.75-14.13,27.29-14.31s21.58,8.53,20.55,19c-.57,5.85-4.5,10.76-6.69,16.22s-1.8,13.13,3.57,15.53c7.36,3.29,16.94-6.32,23.24-1.29a9.85,9.85,0,0,1,3.11,6.22c1.56,9.32-3.05,18.53-8.4,26.32-19.55,28.45-59,60.62-93.62,40.72C608.58,770.72,565.41,708.31,617.44,694.9Z"/>
            <path class="cls-13" d="M695.32,619.63a8.54,8.54,0,0,0,.3,4.79c1.75,3.82,7.52,3.34,11,1s6.37-5.9,10.48-6.79c9.09-2,14.68,9.9,14.93,19.19s-.18,20.7,7.86,25.37c5.91,3.43,13.88.85,18.5-4.19s6.62-11.89,8.11-18.56c4.9-22,7.87-48.13,9.07-69.9,1.38-25.18-11.44-46.5-21.82-70C745.39,523.27,737.39,548,723.59,568,711.71,585.16,698.59,597,695.32,619.63Z"/>
            <path class="cls-13" d="M517.8,391.84c12.11,1.1,26.36-3.62,30.12-15.18,1.69-5.2-.06-10.33-6.2-10.36a301.23,301.23,0,0,0-48.91,3.79c-6.88,1.11-34,2.27-22.06,12C482,391.22,504.09,390.61,517.8,391.84Z"/>
          </g>
        </g>
      </g>
      <path class="cls-10 blink-dot4" d="M833,967.72c-9.77,6.51-19.77-9-9.81-15.2C833,946,843,961.5,833,967.72Z"/>
      <path class="cls-10 blink-dot2" d="M1849.7,745.16c-9.77,6.51-19.76-9-9.81-15.2C1849.66,723.45,1859.66,738.94,1849.7,745.16Z"/>
      <path class="cls-10 blink-dot" d="M1156.74,922.19c-9.77,6.51-19.77-9-9.81-15.2C1156.7,900.49,1166.69,916,1156.74,922.19Z"/>
      <path class="cls-9" d="M274.71,520.51C188.25,550.74,92.35,596,96.26,647.09c1.93,25.25,27.71,47.6,76.69,66.57q6.62,2.57,13.8,5c54.72,18.88,132,33.67,229.77,43.95,200.65,21.11,465.22,21,745-.44s541.27-61.46,736.38-112.82q56.58-14.91,103.06-30.36c47.17-15.67,86.45-31.74,117.36-48,39.5-20.82,64.26-41.57,74-61.94a44.14,44.14,0,0,0,4.58-22.6c-2-26.08-29.27-46.75-68.12-63l.33.4,10.06,12.52c31.58,15.3,48.77,32.4,50.16,50.7a34.9,34.9,0,0,1-2.1,14.52c-16,45-119.81,95.35-291.23,140.48-194.68,51.25-455.72,91.24-735,112.6s-543.39,21.52-743.59.46C311.48,744,229.45,727.27,175.88,706.6c-45.39-17.51-70.35-37.86-72.06-60.09C101.1,610.8,159.15,570.06,267.94,531Z"/>
      <path class="cls-10 blink-dot4" d="M833,1529.17c-9.77,6.51-19.77-9-9.81-15.2C833,1507.46,843,1523,833,1529.17Z"/>
      <path class="cls-10 blink-dot2" d="M1331.24,262.11c-9.76,6.51-19.76-9-9.81-15.2C1331.2,240.4,1341.2,255.89,1331.24,262.11Z"/>
      <path class="cls-10 blink-dot3" d="M850.72,560.54c-9.77,6.51-19.76-9-9.81-15.2C850.68,538.83,860.68,554.32,850.72,560.54Z"/>
      <polygon class="cls-10 blink-dot4" points="1541.86 474.98 1535.64 473.62 1537.01 467.4 1532.86 466.5 1531.5 472.71 1525.29 471.35 1524.38 475.5 1530.59 476.86 1529.23 483.07 1533.37 483.98 1534.74 477.76 1540.95 479.13 1541.86 474.98"/>
      <polygon class="cls-10 blink-dot2" points="529.99 992.88 523.77 991.52 525.13 985.3 520.99 984.4 519.63 990.61 513.41 989.25 512.5 993.39 518.72 994.75 517.36 1000.97 521.5 1001.88 522.87 995.66 529.08 997.02 529.99 992.88"/>
      <path class="cls-14" d="M1597.41,894.62l158.31-462.34-173.83,456.8a8.71,8.71,0,1,0,15.52,5.54Z"/>
      <circle class="cls-12 jumprocket2" cx="2077.48" cy="1053.98" r="27.07"/>
      <circle class="cls-15" cx="2249.46" cy="1787.41" r="27.07"/>
      <circle class="cls-15 jumglobe2" cx="1326.35" cy="1926.51" r="52.77"/>
      <circle class="cls-9 colorfe jumglobe" cx="924.23" cy="1253.77" r="27.07"/>
      <path class="cls-9" d="M2331.94,1503.44c23.66,25.34,36.38,50.53,30.6,73.67-6.31,25.28-33.74,44.3-81.69,56.71q-16.08,4.15-35.21,7.33c-39.82,6.59-88.72,9.9-146.14,9.9q-56.58,0-124-4.28c-232.58-14.77-533.86-66.12-848.32-144.59s-604.53-174.69-816.79-270.92c-95-43.06-169.67-84-222.36-121.89q-7-5-13.51-10c-56.23-43-80.82-80.52-73.1-111.46,8.24-33,52-51.92,107.79-62.32l-1.74,9,0,.19C49.84,946,16.21,964.68,9.88,990c-7.18,28.78,20.39,66.1,78.53,108.73,51.86,38,128.05,80.3,225.56,124.52,211.79,96,501.33,192,815.3,270.4S1743.94,1623.28,1976,1638c139.74,8.88,245.7,3.55,309.61-14.61,39.73-11.29,63.2-27.55,68.41-48.43,4.41-17.66-4.26-38.59-25.2-62.06Z"/>
    </g>
  </g>
</svg>
