<svg xmlns="http://www.w3.org/2000/svg" xmlns:xlink="http://www.w3.org/1999/xlink" viewBox="0 0 64.666 58.666" fill="#fff" fill-rule="evenodd" stroke="#000" stroke-linecap="round" stroke-linejoin="round"><use xlink:href="#A" x="1.333" y="1.333"/><symbol id="A" overflow="visible"><path d="M41.636 24.029c7.14 14.6 8.6 28.4 3.2 31.134-5.59 2.84-16.34-7.14-24.08-22.19-7.74-15.136-9.46-29.67-3.8-32.51 2.32-1.204 5.676 0 9.46 2.924M6.374 33.423c-4.106-2.17-6.536-4.75-6.366-7.5.26-6.3 14.26-10.58 31.22-9.7 16.86.86 30.36 6.6 30.1 12.9-.26 2.6-2.924 4.988-7.224 6.708m-29.5 14.706c-4.56 3.268-8.6 4.472-11.2 2.84-5.16-3.44-1.892-17.72 7.31-31.8S41.614-1.577 46.86 1.689c2.6 1.72 3.096 5.59 2.064 10.75" stroke="#66595c" fill="none" stroke-width="2.666"/><path d="M34.584 27.023c.43 2.064-.86 4.128-2.924 4.56a3.75 3.75 0 0 1-4.472-2.924c-.432-2.064.86-4.128 2.924-4.56a3.8 3.8 0 0 1 4.472 2.924" stroke="none" fill="#66595c" fill-rule="nonzero"/></symbol></svg>