<svg xmlns="http://www.w3.org/2000/svg"  viewBox="0 0 48 48" width="48px" height="48px"><defs><linearGradient id="NX4qzaRknlkLIGuB5rRvAa" x1="19.639" x2="28.361" y1="3.481" y2="44.519" gradientUnits="userSpaceOnUse"><stop offset="0" stop-color="#636363"/><stop offset="1" stop-color="#444"/></linearGradient><linearGradient id="NX4qzaRknlkLIGuB5rRvAb" x1="13" x2="35" y1="30.684" y2="30.684" gradientUnits="userSpaceOnUse"><stop offset="0" stop-color="#ff9c0f"/><stop offset=".813" stop-color="#d67e00"/></linearGradient></defs><g data-name="Слой 2"><rect width="36" height="36" x="6" y="6" fill="url(#NX4qzaRknlkLIGuB5rRvAa)" rx="2"/><path fill="#1d1d1b" d="M14,39a2,2,0,0,1-2-2V31.1A2.5,2.5,0,0,1,13.4,28.825L19.131,27,13.4,25.175A1.993,1.993,0,0,1,12,23.269V16.731A1.993,1.993,0,0,1,13.4,14.825L33.4,8.1A2,2,0,0,1,36,10v6.265a1.993,1.993,0,0,1-1.4,1.906L28.869,20,34.6,21.825A1.993,1.993,0,0,1,36,23.731v6.538a1.993,1.993,0,0,1-1.4,1.906l-20,6.732A2,2,0,0,1,14,39ZM34,10,14,16.731v6.538L25.727,27,14,31.1V37l20-6.732V23.731L22.273,20,34,16.269Z" opacity=".05"/><path d="M14,38.5A1.5,1.5,0,0,1,12.5,37V31.1a1.494,1.494,0,0,1,1.046-1.43L20.779,27l-7.233-2.3A1.493,1.493,0,0,1,12.5,23.269V16.731A1.493,1.493,0,0,1,13.546,15.3l20-6.728A1.5,1.5,0,0,1,35.5,10v6.265A1.493,1.493,0,0,1,34.454,17.7L27.221,20l7.233,2.3A1.493,1.493,0,0,1,35.5,23.731v6.538A1.493,1.493,0,0,1,34.454,31.7l-20,6.732A1.486,1.486,0,0,1,14,38.5ZM33.7,9.051l.152.476-20,6.728a.5.5,0,0,0-.349.476v6.538a.5.5,0,0,0,.349.476L24.078,27,13.849,30.623a.5.5,0,0,0-.349.477V37a.5.5,0,0,0,.205.4.489.489,0,0,0,.446.073l20-6.732a.5.5,0,0,0,.349-.476V23.731a.5.5,0,0,0-.349-.476L23.922,20l10.229-3.255a.5.5,0,0,0,.349-.476V10a.5.5,0,0,0-.651-.477Z" opacity=".07"/><path fill="url(#NX4qzaRknlkLIGuB5rRvAb)" d="M34.3,31.222l-20,6.732A1,1,0,0,1,13,37V31.1a1,1,0,0,1,.7-.952l20-6.732a1,1,0,0,1,1.3.953v5.9A1,1,0,0,1,34.3,31.222Z"/><path fill="#ff9c0f" d="M33.7,9.051l-20,6.727a1,1,0,0,0-.7.953v6.538a1,1,0,0,0,.7.953l21.061,6.7a1.162,1.162,0,0,0,.216-.423A2.867,2.867,0,0,0,35,29.962V23.731a1,1,0,0,0-.7-.953L25.571,20,34.3,17.222a1,1,0,0,0,.7-.953V10A1,1,0,0,0,33.7,9.051Z"/></g></svg>