<svg xmlns="http://www.w3.org/2000/svg"  viewBox="0 0 48 48" width="48px" height="48px"><path fill="#ccc" d="M43,8c1.105,0,2,0.895,2,2v5H3v-5c0-1.105,0.895-2,2-2H43z"/><linearGradient id="YxSJb7ho~j2pFgiBR2SzXa" x1="19.89" x2="28.234" y1="11.876" y2="39.835" gradientUnits="userSpaceOnUse"><stop offset="0" stop-color="#6e6e6e"/><stop offset=".999" stop-color="#4d4d4d"/></linearGradient><path fill="url(#YxSJb7ho~j2pFgiBR2SzXa)" d="M45,13H3v25c0,1.105,0.895,2,2,2h38c1.105,0,2-0.895,2-2V13z"/><circle cx="42" cy="11" r="1" fill="#999"/><circle cx="39" cy="11" r="1" fill="#999"/><path d="M36.755,26.042l-2.322-4.258C34.17,21.301,33.664,21,33.113,21h-1.41	c-0.477,0-0.907,0.245-1.15,0.654c-0.244,0.41-0.253,0.904-0.024,1.324L32.722,27l-2.194,4.021c-0.229,0.42-0.219,0.914,0.024,1.323	c0.244,0.41,0.673,0.655,1.15,0.655h1.41c0.551,0,1.057-0.301,1.32-0.784l2.323-4.258C37.083,27.358,37.083,26.642,36.755,26.042z" opacity=".05"/><path d="M36.317,26.282l-2.323-4.259C33.818,21.7,33.48,21.5,33.113,21.5h-1.41	c-0.299,0-0.568,0.153-0.72,0.41c-0.153,0.257-0.158,0.566-0.015,0.829L33.292,27l-2.324,4.261	c-0.143,0.263-0.138,0.572,0.015,0.829c0.152,0.257,0.421,0.41,0.72,0.41h1.41c0.367,0,0.705-0.2,0.881-0.523l2.323-4.259	C36.562,27.269,36.562,26.731,36.317,26.282z" opacity=".07"/><path d="M11.245,26.042l2.322-4.258C13.83,21.301,14.336,21,14.887,21h1.41c0.477,0,0.907,0.245,1.15,0.654	c0.244,0.41,0.253,0.904,0.024,1.324L15.278,27l2.194,4.021c0.229,0.42,0.219,0.914-0.024,1.323C17.204,32.755,16.774,33,16.297,33	h-1.41c-0.551,0-1.057-0.301-1.32-0.784l-2.323-4.258C10.917,27.358,10.917,26.642,11.245,26.042z" opacity=".05"/><path d="M11.683,26.282l2.323-4.259C14.182,21.7,14.52,21.5,14.887,21.5h1.41c0.299,0,0.568,0.153,0.72,0.41	c0.153,0.257,0.158,0.566,0.015,0.829L14.708,27l2.324,4.261c0.143,0.263,0.138,0.572-0.015,0.829	c-0.152,0.257-0.421,0.41-0.72,0.41h-1.41c-0.367,0-0.705-0.2-0.881-0.523l-2.323-4.259C11.438,27.269,11.438,26.731,11.683,26.282z" opacity=".07"/><path fill="#fff" d="M33.861,27l-2.455,4.5c-0.123,0.225,0.04,0.5,0.297,0.5h1.41c0.184,0,0.354-0.101,0.442-0.262	l2.323-4.259c0.163-0.298,0.163-0.659,0-0.958l-2.323-4.259C33.467,22.101,33.297,22,33.113,22h-1.41	c-0.256,0-0.419,0.274-0.297,0.5L33.861,27z"/><path fill="#fff" d="M14.139,27l2.455,4.5c0.123,0.225-0.04,0.5-0.297,0.5h-1.41c-0.184,0-0.354-0.101-0.442-0.262	l-2.323-4.259c-0.163-0.298-0.163-0.659,0-0.958l2.323-4.259C14.533,22.101,14.703,22,14.887,22h1.41c0.256,0,0.419,0.274,0.297,0.5	L14.139,27z"/><path d="M28.744,17.59L28.744,17.59c-0.262-0.37-0.688-0.59-1.14-0.59h-1.077	c-0.626,0-1.186,0.396-1.393,0.985L19.08,35.141c-0.15,0.426-0.083,0.9,0.178,1.271C19.519,36.78,19.944,37,20.396,37h1.077	c0.626,0,1.187-0.396,1.393-0.986l6.055-17.154C29.07,18.434,29.004,17.959,28.744,17.59z" opacity=".05"/><path d="M28.335,17.878c-0.167-0.236-0.441-0.378-0.731-0.378h-1.077c-0.414,0-0.784,0.262-0.921,0.651	l-6.055,17.155c-0.096,0.273-0.054,0.578,0.114,0.815c0.167,0.236,0.441,0.378,0.731,0.378h1.077c0.415,0,0.785-0.263,0.921-0.652	l6.055-17.154C28.545,18.42,28.502,18.115,28.335,17.878z" opacity=".07"/><path fill="#fff" d="M27.604,18h-1.077c-0.202,0-0.382,0.127-0.449,0.318l-6.055,17.155C19.932,35.73,20.123,36,20.396,36	h1.077c0.202,0,0.382-0.127,0.449-0.318l6.055-17.155C28.068,18.27,27.877,18,27.604,18z"/></svg>