<svg xmlns="http://www.w3.org/2000/svg"  viewBox="0 0 48 48" width="48px" height="48px"><path fill="#107c41" d="M8.895,25.365l-4.237,3.874c-0.9,0.83-0.849,2.267,0.107,3.032c0,0,1.324,1.232,1.803,1.574 C7.304,34.37,8.271,34.43,9,33.896l5.057-3.823L8.895,25.365z"/><linearGradient id="JlC~~4WFFfSrpFhBhPi_La" x1="28.272" x2="4.596" y1="12.354" y2="38.22" gradientUnits="userSpaceOnUse"><stop offset="0" stop-color="#107c41"/><stop offset="1" stop-color="#185c37"/></linearGradient><path fill="url(#JlC~~4WFFfSrpFhBhPi_La)" d="M29.344,6.685c-3.977,3.629-13.659,12.472-13.659,12.472L10.388,24l-0.011,0.01l5.829,4.44 L22.093,24L31,17.268l0.016-9.84C31.017,6.558,29.987,6.099,29.344,6.685z"/><path fill="#21a366" d="M29.326,41.289C29.968,41.874,31,41.419,31,40.55v-9.817L22.093,24l0,0l-6.407-4.843l0,0L9,14.104 c-0.729-0.534-1.696-0.474-2.432,0.051c-0.479,0.342-1.803,1.574-1.803,1.574c-0.956,0.765-1.007,2.202-0.107,3.032L10.388,24l0,0 l5.297,4.843l0,0L29.326,41.289z"/><path fill="#33c481" d="M42.02,8.29L33.2,4.15l0.001,0.009c-0.478-0.2-1.067-0.129-1.476,0.334l-0.053,0.048 c0.02,0.017,0.041,0.031,0.059,0.05C32.729,4.124,34,4.816,34,6.041V15v18v8.947c0,1.259-1.344,1.958-2.355,1.405 c-0.017,0.012-0.034,0.024-0.051,0.035l0.132,0.12c0.409,0.463,0.998,0.533,1.476,0.334L33.2,43.85l8.82-4.14 c1.19-0.42,1.98-1.55,1.98-2.82V11.11C44,9.84,43.21,8.71,42.02,8.29z"/></svg>